# xmcd
#
# Track frame offsets:
#	150
#	9920
#	22843
#	34399
#	45163
#	56050
#	69658
#	82646
#	93300
#	103288
#	115195
#	126839
#	139260
#	149795
#	160691
#	172356
#	183341
#	193492
#	205550
#	217920
#	227434
#	239270
#	254797
#	266525
#	276526
#
# Disc length: 3868 seconds
#
# Revision: 1
# Processed by: cddbd v1.5.2PL0 Copyright (c) Steve Scherf et al.
# Submitted via: audiograbber 1.83.01
#
DISCID=6e0f1a19
DTITLE=Various Artist - From a Jack to a King
DYEAR=2013
DGENRE=Country
TTITLE0=Ned Miller - From a Jack to a King
TTITLE1=Willie Nelson - Crazy
TTITLE2=Don Gibson - Sea of Heartbreak
TTITLE3=Johnny Cash - In the Jailhouse Now
TTITLE4=Faron Young - Hello Walls
TTITLE5=Jimmy Dean - Big Bad John
TTITLE6=Marty Robbins - Devil Woman
TTITLE7=Hank Locklin - Please Help Me, I'm Falling
TTITLE8=Conway Twitty - It's Only Make Believe
TTITLE9=Hank Williams - Take These Chains From My Heart
TTITLE10=George Jines - She Still Thinks I Care
TTITLE11=Hank Snow - I've Been Everywhere
TTITLE12=Jim Reeves - He'll Have to Go
TTITLE13=Sheb Wooley - That's My Pa
TTITLE14=Porter Wagoner - Misery Loves Company
TTITLE15=Slim Whitman - Keep It a Secret
TTITLE16=Billy Walker - Charlie's Shoes
TTITLE17=Carl SMith - Cut Across Shorty
TTITLE18=Ray Price - Heart Over Mind
TTITLE19=Webb Pierce - Fallen Angel
TTITLE20=Buck Owens - Kickin' Our Hearts Around
TTITLE21=Bill Anderson - Mama Sang a Song
TTITLE22=George Hamilton - Before This Day Ends
TTITLE23=Roger Miller - When Two Worlds Collide
TTITLE24=Tex Ritter - Deck of Cards
EXTD=YEAR: 2013\nXTRA Records, GBR
EXTT0=
EXTT1=
EXTT2=
EXTT3=
EXTT4=
EXTT5=
EXTT6=
EXTT7=
EXTT8=
EXTT9=
EXTT10=
EXTT11=
EXTT12=
EXTT13=
EXTT14=
EXTT15=
EXTT16=
EXTT17=
EXTT18=
EXTT19=
EXTT20=
EXTT21=
EXTT22=
EXTT23=
EXTT24=
PLAYORDER=
